<svg xmlns="http://www.w3.org/2000/svg" id="Camada_1" data-name="Camada 1" viewBox="153.79 165.34 372.87 53.05">
	<defs>
		<style>
			.cls-2{fill:#1f2428;}
			.cls-3{fill:#50c970;}
		</style>
	</defs>
	<path class="cls-2" d="M449,192.57a.47.47,0,0,1-.45-.23L445.61,188v4.35a.22.22,0,0,1-.23.24h-.85a.21.21,0,0,1-.23-.24V186a.22.22,0,0,1,.23-.23h.71a.57.57,0,0,1,.6.31l2.73,4V186a.21.21,0,0,1,.22-.23h.85a.22.22,0,0,1,.23.23v6.3a.22.22,0,0,1-.23.24Z"/>
	<path class="cls-2" d="M454.76,192.61c-2.17,0-2.8-.76-2.8-3.41s.63-3.44,2.8-3.44,2.79.77,2.79,3.44S456.93,192.61,454.76,192.61Zm0-5.69c-1.29,0-1.48.51-1.48,2.28s.19,2.25,1.48,2.25,1.48-.51,1.48-2.25S456.05,186.92,454.76,186.92Z"/>
	<path class="cls-2" d="M442.34,199.16a4,4,0,0,1-4-4V183.25a4,4,0,0,1,4-4h17.58a4,4,0,0,1,4,4v15.91Zm0-18.62a2.72,2.72,0,0,0-2.71,2.71v11.87a2.72,2.72,0,0,0,2.71,2.71h20.28V183.25a2.71,2.71,0,0,0-2.7-2.71Z"/><path class="cls-2" d="M466.66,217.79a4,4,0,0,1-4-4v-15.9h60a4,4,0,0,1,4,4v11.87a4,4,0,0,1-4,4Zm-2.71-4a2.71,2.71,0,0,0,2.71,2.71H522.6a2.71,2.71,0,0,0,2.71-2.71V201.88a2.71,2.71,0,0,0-2.71-2.7H464Z"/>
	<path class="cls-2" d="M470,211.48a.22.22,0,0,1-.23-.23v-6.32a.22.22,0,0,1,.23-.23h4.16a.23.23,0,0,1,.24.23v.71a.22.22,0,0,1-.24.23h-3.08v1.72h2.8a.22.22,0,0,1,.23.23v.68a.22.22,0,0,1-.23.23h-2.8v1.58h3.08a.22.22,0,0,1,.24.23v.71a.22.22,0,0,1-.24.23Z"/>
	<path class="cls-2" d="M480.53,211.48a.33.33,0,0,1-.32-.19L478.73,209l-1.47,2.26a.32.32,0,0,1-.31.19H476a.22.22,0,0,1-.22-.11.22.22,0,0,1,0-.24L478,208l-2-2.91a.22.22,0,0,1,0-.24.21.21,0,0,1,.21-.11h.93a.31.31,0,0,1,.31.19l1.29,2,1.3-2a.33.33,0,0,1,.32-.19h.92a.23.23,0,0,1,.22.11.23.23,0,0,1,0,.24L479.51,208l2.12,3.17a.21.21,0,0,1,0,.24s-.08.11-.22.11Z"/>
	<path class="cls-2" d="M485.06,211.48a.22.22,0,0,1-.23-.23v-5.38h-1.77a.22.22,0,0,1-.23-.23v-.71a.22.22,0,0,1,.23-.23h4.85a.22.22,0,0,1,.23.23v.71a.22.22,0,0,1-.23.23h-1.78v5.38a.22.22,0,0,1-.23.23Z"/>
	<path class="cls-2" d="M490.15,211.48a.22.22,0,0,1-.23-.23v-6.32a.22.22,0,0,1,.23-.23h4.15a.23.23,0,0,1,.24.23v.71a.22.22,0,0,1-.24.23h-3.07v1.72H494a.22.22,0,0,1,.23.23v.68a.22.22,0,0,1-.23.23h-2.8v1.58h3.07a.22.22,0,0,1,.24.23v.71a.22.22,0,0,1-.24.23Z"/>
	<path class="cls-2" d="M500.61,211.48a.44.44,0,0,1-.43-.24l-1.36-2.14-.82,0h-.1v2.19c0,.16-.07.23-.23.23h-.85c-.16,0-.23-.07-.23-.23V205c0-.16.09-.21.22-.22.59,0,1.34-.07,2.06-.07,1.84,0,2.65.32,2.65,2.24,0,1.26-.31,1.81-1.16,2l-.14,0,1.37,2.19a.18.18,0,0,1,0,.22.21.21,0,0,1-.21.11ZM497.9,208h.87c1.2,0,1.44-.09,1.44-1s-.29-1.11-1.44-1.11h-.87Z"/>
	<path class="cls-2" d="M503.81,211.48a.22.22,0,0,1-.23-.24v-6.31a.22.22,0,0,1,.23-.23h.84a.22.22,0,0,1,.23.23v6.31a.21.21,0,0,1-.23.24Z"/>
	<path class="cls-2" d="M509.77,211.52c-2.17,0-2.8-.77-2.8-3.42s.63-3.44,2.8-3.44,2.8.77,2.8,3.44S511.94,211.52,509.77,211.52Zm0-5.7c-1.29,0-1.48.52-1.48,2.28s.19,2.26,1.48,2.26,1.49-.51,1.49-2.26S511.06,205.82,509.77,205.82Z"/>
	<path class="cls-2" d="M518.68,211.48a.44.44,0,0,1-.43-.24l-1.36-2.14-.82,0H516v2.19a.2.2,0,0,1-.23.23h-.85a.2.2,0,0,1-.23-.23V205c0-.16.09-.21.22-.22.59,0,1.34-.07,2.06-.07,1.83,0,2.65.32,2.65,2.24,0,1.26-.31,1.81-1.16,2l-.14,0,1.37,2.19a.18.18,0,0,1,0,.22.21.21,0,0,1-.21.11ZM516,208h.87c1.2,0,1.44-.09,1.44-1s-.29-1.11-1.44-1.11H516Z"/>
	<path class="cls-3" d="M212.48,218.38c-13.26,0-16.5-3.8-16.5-19.38s3.24-19.45,16.5-19.45c12.85,0,16,3.67,16.16,18.7v2.05c0,1.48-.6,2-2.44,2H204.55v.1c.22,6.93,1.87,8.62,8.4,8.62h11.73a1,1,0,0,1,1.13,1.13v4.25a1.14,1.14,0,0,1-1,1.26A84.81,84.81,0,0,1,212.48,218.38Zm0-31.42c-6.2,0-7.83,1.85-7.93,9v.1h15.51V196C220,188.81,218.41,187,212.48,187Z"/>
	<path class="cls-3" d="M251.1,218.38c-13.64,0-16.77-3.63-16.77-19.45s3.13-19.38,16.77-19.38a72.7,72.7,0,0,1,10.86.76,1.2,1.2,0,0,1,1.11,1.33v4.19c0,.75-.4,1.13-1.2,1.13H251.1c-7.4,0-8.2,2.42-8.2,12s.8,12,8.2,12h10.77c.8,0,1.2.38,1.2,1.13v4.18a1.2,1.2,0,0,1-1.11,1.33A71.52,71.52,0,0,1,251.1,218.38Z"/>
	<path class="cls-3" d="M295,218a1,1,0,0,1-1.13-1.13V197.42c0-10.15-1.51-10.53-7.93-10.53h-7.79v30A1,1,0,0,1,277,218h-6.31c-.71,0-1.06-.37-1.06-1.13V166.55a1,1,0,0,1,1.13-1.13H277a1,1,0,0,1,1.13,1.13v13.33h.11a73.15,73.15,0,0,1,7.82-.32c12.82,0,16.29,2,16.29,16.36v21a1,1,0,0,1-1.13,1.13Z"/>
	<path class="cls-2" d="M366.2,218.38c-13.64,0-16.77-3.62-16.77-19.38s3.13-19.45,16.77-19.45S383,183.37,383,199,379.73,218.38,366.2,218.38Zm0-31.42c-7.3,0-8.27,2.42-8.27,12s1,12,8.27,12,8.27-2.41,8.27-12S373.5,187,366.2,187Z"/>
	<path class="cls-2" d="M406.53,218.38a82.74,82.74,0,0,1-14.7-1.24,1.4,1.4,0,0,1-1.39-1.54v-49a1,1,0,0,1,1.13-1.13h6.32a1,1,0,0,1,1.13,1.13V180h.11a76.65,76.65,0,0,1,8.57-.39c12.5,0,15.74,4,15.74,19.45S420.12,218.38,406.53,218.38ZM399,210.44h.08a60,60,0,0,0,7.5.53c7.52,0,8.34-2.43,8.34-12,0-9.76-.79-12-8.54-12H399Z"/>
	<path class="cls-3" d="M170.89,218a1.14,1.14,0,0,1-1.13-1.13V181.37a.63.63,0,0,1,.63-.62h6a2.18,2.18,0,0,0,2.18-2.14v-2.77a2.7,2.7,0,0,0-2.12-2.55H154.93a1,1,0,0,1-1.13-1.13v-5.61a1,1,0,0,1,1.13-1.13h22.79a1,1,0,0,1,1.13,1.13v4.86a2.17,2.17,0,0,0,2.2,1.66h.1l.37,0,.13,0h12a1,1,0,0,1,1.13,1.13v5.62a1,1,0,0,1-1.13,1.13H181.23v0a2.7,2.7,0,0,0-2.49,2.32v33.62a1.14,1.14,0,0,1-1.13,1.13Z"/>
	<path class="cls-2" d="M319.48,218.38a59.76,59.76,0,0,1-10.65-.83,1.41,1.41,0,0,1-1.38-1.53v-4.4a1.12,1.12,0,0,1,1.13-1.12h10.9c5,0,7.92-.83,9.84-2.77,2.78-2.81,3.31-8.29,3.24-15.66V175.91a2.69,2.69,0,0,0-2.09-2.68H317a1,1,0,0,1-1.13-1.13v-5.62a1,1,0,0,1,1.13-1.13h14.61a1,1,0,0,1,1.13,1.13v4.06A2.28,2.28,0,0,0,335,173h5.56a1,1,0,0,1,1,1v18C341.61,212.48,336.65,218.38,319.48,218.38Z"/>
</svg>