<?xml version="1.0" encoding="utf-8"?>
<!-- Generator: Adobe Illustrator 23.0.0, SVG Export Plug-In . SVG Version: 6.00 Build 0)  -->
<svg version="1.1" id="Camada_1" xmlns="http://www.w3.org/2000/svg" xmlns:xlink="http://www.w3.org/1999/xlink" x="0px" y="0px"
	 viewBox="0 0 141.6 21" style="enable-background:new 0 0 141.6 21;" xml:space="preserve">
<style type="text/css">
	.st0{fill:#FCFAFA;}
	.st1{fill:#70FF87;}
</style>
<g>
	<path class="st0" d="M111.8,8.3L111.8,8.3v2.4v0.1h-0.2c-0.1,0-0.1,0-0.1-0.1L110.3,9v1.8v0.1H110c0,0,0,0,0-0.1V8.3l0,0h0.3
		c0.1,0,0.1,0,0.2,0.1l1.1,1.6V8.3l0,0H111.8z"/>
	<path class="st0" d="M114.7,9.5c0,1-0.2,1.2-1,1.2s-1-0.3-1-1.2c0-1,0.2-1.3,1-1.3C114.5,8.3,114.7,8.5,114.7,9.5 M113.1,9.5
		c0,0.7,0.1,0.9,0.6,0.9s0.6-0.2,0.6-0.9s-0.1-0.9-0.6-0.9S113.1,8.8,113.1,9.5"/>
	<path class="st0" d="M117.1,13.2H109c-0.8,0-1.5-0.7-1.5-1.5V7.3c0-0.8,0.7-1.5,1.5-1.5h6.6c0.8,0,1.5,0.7,1.5,1.5V13.2z M109,6.2
		c-0.6,0-1.1,0.5-1.1,1.1v4.4c0,0.6,0.5,1.1,1.1,1.1h7.6V7.3c0-0.6-0.5-1.1-1.1-1.1C115.5,6.2,109,6.2,109,6.2z"/>
	<path class="st0" d="M139.1,20.2h-20.9c-0.8,0-1.5-0.7-1.5-1.5v-5.9h22.4c0.8,0,1.5,0.7,1.5,1.5v4.4
		C140.5,19.5,139.9,20.2,139.1,20.2 M117.1,13.2v5.5c0,0.6,0.5,1.1,1.1,1.1h20.9c0.6,0,1.1-0.5,1.1-1.1v-4.4c0-0.6-0.5-1.1-1.1-1.1
		C139.1,13.2,117.1,13.2,117.1,13.2z"/>
	<path class="st0" d="M120.9,15.3C121,15.3,121,15.4,120.9,15.3l0.1,0.3c0,0,0,0-0.1,0h-1.2v0.7h1.1l0,0v0.3l0,0h-1.1v0.7h1.2h0.1
		v0.3c0,0,0,0-0.1,0h-1.6l0,0v-2.4l0,0L120.9,15.3L120.9,15.3z"/>
	<path class="st0" d="M123.6,15.3C123.7,15.3,123.7,15.4,123.6,15.3l-0.7,1.2l0.8,1.2c0,0.1,0,0.1,0,0.1h-0.3c0,0-0.1,0-0.1-0.1
		l-0.6-0.9l-0.6,0.9c0,0,0,0.1-0.1,0.1h-0.3c0,0-0.1,0,0-0.1l0.8-1.2l-0.7-1.1v-0.1h0.3c0.1,0,0.1,0,0.1,0.1l0.5,0.8l0.5-0.8
		c0,0,0-0.1,0.1-0.1C123.3,15.3,123.6,15.3,123.6,15.3z"/>
	<path class="st0" d="M126.1,15.3C126.1,15.3,126.1,15.4,126.1,15.3v0.3l0,0h-0.7v2.1l0,0H125l0,0v-2.1h-0.7l0,0v-0.3l0,0H126.1z"/>
	<path class="st0" d="M128.5,15.3C128.5,15.3,128.5,15.4,128.5,15.3l0.1,0.3c0,0,0,0-0.1,0h-1.2v0.7h1.1l0,0v0.3l0,0h-1.1v0.7h1.2
		h0.1v0.3c0,0,0,0-0.1,0h-1.6l0,0v-2.4l0,0L128.5,15.3L128.5,15.3z"/>
	<path class="st0" d="M131.1,16.1c0,0.5-0.1,0.7-0.5,0.7l0.5,0.9v0.1h-0.3c-0.1,0-0.1,0-0.1-0.1l-0.5-0.8h-0.4v0.9l0,0h-0.3l0,0
		v-2.4l0,0c0.3,0,0.5,0,0.8,0C130.9,15.3,131.1,15.5,131.1,16.1 M129.8,15.7v0.9h0.4c0.5,0,0.6,0,0.6-0.4s-0.1-0.4-0.6-0.4h-0.4
		V15.7z"/>
	<path class="st0" d="M132.4,15.3C132.4,15.3,132.4,15.4,132.4,15.3v2.4v0.1H132c0,0,0,0,0-0.1v-2.4l0,0
		C132,15.3,132.4,15.3,132.4,15.3z"/>
	<path class="st0" d="M135.3,16.6c0,1-0.2,1.2-1,1.2s-1-0.3-1-1.2c0-1,0.2-1.3,1-1.3S135.3,15.6,135.3,16.6 M133.7,16.6
		c0,0.7,0.1,0.9,0.6,0.9s0.6-0.2,0.6-0.9c0-0.7-0.1-0.9-0.6-0.9C133.8,15.7,133.7,15.9,133.7,16.6"/>
	<path class="st0" d="M137.9,16.1c0,0.5-0.1,0.7-0.5,0.7l0.5,0.9v0.1h-0.3c-0.1,0-0.1,0-0.1-0.1l-0.5-0.8h-0.4v0.9l0,0h-0.3l0,0
		v-2.4l0,0c0.3,0,0.5,0,0.8,0C137.7,15.3,137.9,15.5,137.9,16.1 M136.6,15.7v0.9h0.4c0.5,0,0.6,0,0.6-0.4s-0.1-0.4-0.6-0.4h-0.4
		V15.7z"/>
	<path class="st1" d="M29,12.9v0.8c0,0.5-0.2,0.7-0.9,0.7H20c0.1,2.7,0.7,3.3,3.2,3.3h4.4c0.3,0,0.4,0.1,0.4,0.4v1.6
		c0,0.3-0.1,0.4-0.4,0.4c-1.4,0.2-3,0.3-4.6,0.3c-5,0-6.1-1.4-6.1-7.2S18,6,23,6C27.8,5.9,28.9,7.3,29,12.9 M20,12.1h5.9
		c0-2.8-0.6-3.5-2.9-3.5C20.6,8.6,20,9.3,20,12.1"/>
	<path class="st1" d="M41.5,6.2c0.3,0.1,0.4,0.2,0.4,0.5v1.6c0,0.3-0.1,0.4-0.4,0.4h-4c-2.7,0-3.1,0.9-3.1,4.5s0.4,4.5,3.1,4.5h4
		c0.3,0,0.4,0.1,0.4,0.4v1.6c0,0.3-0.1,0.4-0.4,0.5c-1.4,0.2-3,0.3-4.1,0.3c-5.2,0-6.2-1.4-6.2-7.2s1-7.2,6.2-7.2
		C38.5,5.9,40.1,6,41.5,6.2"/>
	<path class="st1" d="M47.1,0.6c0.3,0,0.4,0.1,0.4,0.4v5c1.1-0.1,2.3-0.1,3-0.1c4.8,0,6.1,0.7,6.1,6.1v7.9c0,0.3-0.1,0.4-0.4,0.4
		h-2.3c-0.3,0-0.4-0.1-0.4-0.4v-7.3c0-3.8-0.6-4-3-4h-3v11.3c0,0.3-0.1,0.4-0.4,0.4h-2.4c-0.3,0-0.4-0.1-0.4-0.4V1
		c0-0.3,0.1-0.4,0.4-0.4H47.1z"/>
	<path class="st0" d="M86.8,13.2c0,5.8-1.1,7.2-6.3,7.2c-5.1,0-6.2-1.4-6.2-7.2S75.4,6,80.5,6C85.7,5.9,86.8,7.4,86.8,13.2
		 M77.4,13.2c0,3.6,0.4,4.5,3.1,4.5s3.1-0.9,3.1-4.5s-0.4-4.5-3.1-4.5S77.4,9.5,77.4,13.2"/>
	<path class="st0" d="M92.4,0.6c0.3,0,0.4,0.1,0.4,0.4v5.1c0.8-0.1,2-0.2,3.3-0.2c4.8,0,5.9,1.5,5.9,7.2s-1.1,7.2-6.3,7.2
		c-1.8,0-3.3-0.1-5.5-0.5c-0.3-0.1-0.5-0.2-0.5-0.5V1c0-0.3,0.1-0.4,0.4-0.4H92.4z M92.8,8.6v8.9c0.9,0.1,2.1,0.2,2.9,0.2
		c2.9,0,3.2-1,3.2-4.5c0-3.7-0.4-4.5-3.2-4.5h-2.9V8.6z"/>
	<path class="st1" d="M15.9,3.5h-4.7l0,0c0,0-0.7,0.1-0.9-0.7V1c0-0.3-0.1-0.4-0.4-0.4H1.4C1.2,0.6,1,0.8,1,1v2.1
		c0,0.3,0.1,0.4,0.4,0.4h8.1c0.3,0,0.8,0.4,0.8,1V4.4v1.2c0,0.2-0.1,0.8-0.9,0.8H7.2C7.1,6.4,7,6.5,7,6.6v13.3
		c0,0.2,0.2,0.4,0.4,0.4h2.5c0.2,0,0.4-0.2,0.4-0.4V7.2l0,0l0,0l0,0c0-0.3,0.3-0.9,1-0.9h-0.1h4.7c0.3,0,0.4-0.1,0.4-0.4v-2
		C16.3,3.6,16.2,3.5,15.9,3.5"/>
	<path class="st0" d="M70.9,3.5h-2.1c-0.2,0-0.9-0.1-0.9-1V1c0-0.3-0.1-0.4-0.4-0.4H62c-0.3,0-0.4,0.1-0.4,0.4v2.1
		c0,0.3,0.1,0.4,0.4,0.4h5c0.3,0,0.8,0.3,0.8,1v6.1c0.1,5.4-0.8,6.9-4.9,6.9H59c-0.2,0-0.4,0.2-0.4,0.4v1.6c0,0.3,0.2,0.5,0.5,0.5
		c1.3,0.2,2.3,0.3,4,0.3c6.5,0,8.2-2.2,8.2-9.8V3.8C71.3,3.6,71.1,3.5,70.9,3.5"/>
</g>
</svg>
