<svg xmlns="http://www.w3.org/2000/svg" id="Camada_1" data-name="Camada 1" viewBox="145.75 116.02 208.51 267.96">
	<defs>
		<style>.cls-2{fill:#50c970;}</style>
	</defs>
	<path class="cls-2" d="M349,155.15H285.13l.06-.05s-9.88.87-12.38-9V121.28c0-3.5-1.75-5.26-5.26-5.26H151c-3.5,0-5.25,1.76-5.25,5.26V150q0,5.25,5.25,5.25H261c3.47.66,11.27,4.8,11.27,13.54V183c-.19,3.11-1.71,10.43-11.63,11.43H230.09a2.67,2.67,0,0,0-2.68,2.67V378.73a5.25,5.25,0,0,0,5.25,5.25H267a5.25,5.25,0,0,0,5.25-5.25V206.3h0v.59c.35-3.48,4.09-12.4,13.75-12.4l-1.82-.11H349c3.51,0,5.26-1.76,5.26-5.26V160.42C354.21,156.92,352.46,155.15,349,155.15Z"/>
</svg>